<?xml version="1.0" encoding="UTF-8"?> <svg xmlns="http://www.w3.org/2000/svg" width="500" height="400" viewBox="0 0 500 400" fill="none"><rect x="93" y="20" width="384" height="266" rx="20" fill="#80BDC4"></rect><rect x="23" y="114" width="384" height="266" rx="20" fill="#CCE5E7"></rect><g filter="url(#filter0_d_42_147)"><rect x="53" y="60" width="384" height="290" rx="20" fill="white"></rect></g><rect x="192" y="120" width="137" height="13" rx="6.19048" fill="#C1BFB8"></rect><rect x="192" y="163" width="98" height="12" rx="6" fill="#CCE5E7"></rect><rect x="192" y="195" width="206" height="12" rx="6" fill="#80BDC4"></rect><rect x="192" y="227" width="206" height="12" rx="6" fill="#CCE5E7"></rect><path fill-rule="evenodd" clip-rule="evenodd" d="M150.631 220.233C148.742 213.962 143.833 209.115 137.654 207.238C141.043 204.521 143.159 200.377 143.159 195.769C143.159 187.651 136.583 181.048 128.5 181.048C120.416 181.048 113.84 187.642 113.84 195.749C113.84 200.366 115.957 204.518 119.347 207.237C113.167 209.112 108.257 213.961 106.368 220.233C100.865 214.629 97.4623 206.957 97.4623 198.5C97.4623 181.386 111.386 167.462 128.5 167.462C145.615 167.462 159.538 181.386 159.538 198.5C159.538 206.957 156.134 214.629 150.631 220.233ZM130.222 206.386H126.778C121.649 205.476 117.802 200.93 117.802 195.749C117.802 189.828 122.6 185.01 128.5 185.01C134.399 185.01 139.197 189.837 139.197 195.769C139.197 201.024 135.431 205.466 130.222 206.386ZM109.743 223.208C111.034 215.809 117.423 210.349 125.037 210.349H126.423V210.324L130.549 210.349L130.576 210.343V210.349H131.962C139.575 210.349 145.963 215.807 147.256 223.208C142.042 227.176 135.542 229.538 128.5 229.538C121.457 229.538 114.957 227.176 109.743 223.208ZM128.5 163.5C109.2 163.5 93.5 179.201 93.5 198.5C93.5 217.799 109.2 233.5 128.5 233.5C147.799 233.5 163.5 217.799 163.5 198.5C163.5 179.201 147.799 163.5 128.5 163.5Z" fill="#555551"></path><path d="M137.654 207.238L137.342 206.848L136.602 207.441L137.509 207.717L137.654 207.238ZM119.347 207.237L119.492 207.715L120.4 207.44L119.66 206.847L119.347 207.237ZM106.368 220.233L106.011 220.584L106.603 221.186L106.847 220.377L106.368 220.233ZM126.778 206.386L126.691 206.879L126.734 206.886H126.778V206.386ZM126.423 210.349V210.849H126.923V210.349H126.423ZM126.423 210.324L126.426 209.824L125.923 209.821V210.324H126.423ZM130.549 210.349L130.546 210.849L130.594 210.849L130.642 210.84L130.549 210.349ZM130.576 210.343H131.076V209.739L130.483 209.852L130.576 210.343ZM130.576 210.349H130.076V210.849H130.576V210.349ZM147.256 223.208L147.559 223.605L147.801 223.421L147.749 223.122L147.256 223.208ZM151.11 220.089C149.172 213.656 144.136 208.685 137.8 206.76L137.509 207.717C143.529 209.545 148.312 214.268 150.152 220.377L151.11 220.089ZM137.967 207.628C141.471 204.82 143.659 200.533 143.659 195.769H142.659C142.659 200.22 140.616 204.223 137.342 206.848L137.967 207.628ZM143.659 195.769C143.659 187.377 136.861 180.548 128.5 180.548V181.548C136.305 181.548 142.659 187.926 142.659 195.769H143.659ZM128.5 180.548C120.138 180.548 113.34 187.367 113.34 195.749H114.34C114.34 187.917 120.693 181.548 128.5 181.548V180.548ZM113.34 195.749C113.34 200.523 115.529 204.816 119.034 207.627L119.66 206.847C116.384 204.219 114.34 200.21 114.34 195.749H113.34ZM119.202 206.759C112.864 208.682 107.827 213.655 105.889 220.089L106.847 220.377C108.687 214.267 113.471 209.543 119.492 207.715L119.202 206.759ZM106.725 219.883C101.309 214.368 97.9623 206.82 97.9623 198.5H96.9623C96.9623 207.094 100.42 214.89 106.011 220.584L106.725 219.883ZM97.9623 198.5C97.9623 181.662 111.662 167.962 128.5 167.962V166.962C111.11 166.962 96.9623 181.11 96.9623 198.5H97.9623ZM128.5 167.962C145.338 167.962 159.038 181.662 159.038 198.5H160.038C160.038 181.11 145.891 166.962 128.5 166.962V167.962ZM159.038 198.5C159.038 206.82 155.69 214.368 150.274 219.883L150.988 220.584C156.579 214.89 160.038 207.094 160.038 198.5H159.038ZM130.222 205.886H126.778V206.886H130.222V205.886ZM126.865 205.894C121.972 205.026 118.302 200.685 118.302 195.749H117.302C117.302 201.176 121.326 205.927 126.691 206.879L126.865 205.894ZM118.302 195.749C118.302 190.102 122.878 185.51 128.5 185.51V184.51C122.322 184.51 117.302 189.554 117.302 195.749H118.302ZM128.5 185.51C134.12 185.51 138.697 190.111 138.697 195.769H139.697C139.697 189.564 134.678 184.51 128.5 184.51V185.51ZM138.697 195.769C138.697 200.778 135.109 205.015 130.135 205.894L130.309 206.879C135.754 205.917 139.697 201.27 139.697 195.769H138.697ZM110.235 223.294C111.486 216.132 117.668 210.849 125.037 210.849V209.849C117.178 209.849 110.583 215.486 109.25 223.122L110.235 223.294ZM125.037 210.849H126.423V209.849H125.037V210.849ZM126.923 210.349V210.324H125.923V210.349H126.923ZM126.42 210.824L130.546 210.849L130.552 209.849L126.426 209.824L126.42 210.824ZM130.642 210.84L130.67 210.835L130.483 209.852L130.455 209.857L130.642 210.84ZM130.076 210.343V210.349H131.076V210.343H130.076ZM130.576 210.849H131.962V209.849H130.576V210.849ZM131.962 210.849C139.33 210.849 145.512 216.131 146.764 223.294L147.749 223.122C146.414 215.484 139.82 209.849 131.962 209.849V210.849ZM146.953 222.81C141.823 226.715 135.429 229.038 128.5 229.038V230.038C135.656 230.038 142.261 227.638 147.559 223.605L146.953 222.81ZM128.5 229.038C121.57 229.038 115.176 226.715 110.046 222.81L109.44 223.605C114.738 227.638 121.343 230.038 128.5 230.038V229.038ZM128.5 163C108.924 163 93 178.925 93 198.5H94C94 179.477 109.476 164 128.5 164V163ZM93 198.5C93 218.075 108.924 234 128.5 234V233C109.476 233 94 217.523 94 198.5H93ZM128.5 234C148.075 234 164 218.075 164 198.5H163C163 217.523 147.523 233 128.5 233V234ZM164 198.5C164 178.925 148.075 163 128.5 163V164C147.523 164 163 179.477 163 198.5H164Z" fill="#555551"></path><mask id="mask0_42_147" style="mask-type:alpha" maskUnits="userSpaceOnUse" x="93" y="163" width="72" height="72"><path fill-rule="evenodd" clip-rule="evenodd" d="M150.631 220.233C148.742 213.962 143.833 209.115 137.654 207.238C141.043 204.521 143.159 200.377 143.159 195.769C143.159 187.651 136.583 181.048 128.5 181.048C120.416 181.048 113.84 187.642 113.84 195.749C113.84 200.366 115.957 204.518 119.347 207.237C113.167 209.112 108.257 213.961 106.368 220.233C100.865 214.629 97.4623 206.957 97.4623 198.5C97.4623 181.386 111.386 167.462 128.5 167.462C145.615 167.462 159.538 181.386 159.538 198.5C159.538 206.957 156.134 214.629 150.631 220.233ZM130.222 206.386H126.778C121.649 205.476 117.802 200.93 117.802 195.749C117.802 189.828 122.6 185.01 128.5 185.01C134.399 185.01 139.197 189.837 139.197 195.769C139.197 201.024 135.431 205.466 130.222 206.386ZM109.743 223.208C111.034 215.809 117.423 210.349 125.037 210.349H126.423V210.324L130.549 210.349L130.576 210.343V210.349H131.962C139.575 210.349 145.963 215.807 147.256 223.208C142.042 227.176 135.542 229.538 128.5 229.538C121.457 229.538 114.957 227.176 109.743 223.208ZM128.5 163.5C109.2 163.5 93.5 179.201 93.5 198.5C93.5 217.799 109.2 233.5 128.5 233.5C147.799 233.5 163.5 217.799 163.5 198.5C163.5 179.201 147.799 163.5 128.5 163.5Z" fill="white"></path><path d="M137.654 207.238L137.342 206.848L136.602 207.441L137.509 207.717L137.654 207.238ZM119.347 207.237L119.492 207.715L120.4 207.44L119.66 206.847L119.347 207.237ZM106.368 220.233L106.011 220.584L106.603 221.186L106.847 220.377L106.368 220.233ZM126.778 206.386L126.691 206.879L126.734 206.886H126.778V206.386ZM126.423 210.349V210.849H126.923V210.349H126.423ZM126.423 210.324L126.426 209.824L125.923 209.821V210.324H126.423ZM130.549 210.349L130.546 210.849L130.594 210.849L130.642 210.84L130.549 210.349ZM130.576 210.343H131.076V209.739L130.483 209.852L130.576 210.343ZM130.576 210.349H130.076V210.849H130.576V210.349ZM147.256 223.208L147.559 223.605L147.801 223.421L147.749 223.122L147.256 223.208ZM151.11 220.089C149.172 213.656 144.136 208.685 137.8 206.76L137.509 207.717C143.529 209.545 148.312 214.268 150.152 220.377L151.11 220.089ZM137.967 207.628C141.471 204.82 143.659 200.533 143.659 195.769H142.659C142.659 200.22 140.616 204.223 137.342 206.848L137.967 207.628ZM143.659 195.769C143.659 187.377 136.861 180.548 128.5 180.548V181.548C136.305 181.548 142.659 187.926 142.659 195.769H143.659ZM128.5 180.548C120.138 180.548 113.34 187.367 113.34 195.749H114.34C114.34 187.917 120.693 181.548 128.5 181.548V180.548ZM113.34 195.749C113.34 200.523 115.529 204.816 119.034 207.627L119.66 206.847C116.384 204.219 114.34 200.21 114.34 195.749H113.34ZM119.202 206.759C112.864 208.682 107.827 213.655 105.889 220.089L106.847 220.377C108.687 214.267 113.471 209.543 119.492 207.715L119.202 206.759ZM106.725 219.883C101.309 214.368 97.9623 206.82 97.9623 198.5H96.9623C96.9623 207.094 100.42 214.89 106.011 220.584L106.725 219.883ZM97.9623 198.5C97.9623 181.662 111.662 167.962 128.5 167.962V166.962C111.11 166.962 96.9623 181.11 96.9623 198.5H97.9623ZM128.5 167.962C145.338 167.962 159.038 181.662 159.038 198.5H160.038C160.038 181.11 145.891 166.962 128.5 166.962V167.962ZM159.038 198.5C159.038 206.82 155.69 214.368 150.274 219.883L150.988 220.584C156.579 214.89 160.038 207.094 160.038 198.5H159.038ZM130.222 205.886H126.778V206.886H130.222V205.886ZM126.865 205.894C121.972 205.026 118.302 200.685 118.302 195.749H117.302C117.302 201.176 121.326 205.927 126.691 206.879L126.865 205.894ZM118.302 195.749C118.302 190.102 122.878 185.51 128.5 185.51V184.51C122.322 184.51 117.302 189.554 117.302 195.749H118.302ZM128.5 185.51C134.12 185.51 138.697 190.111 138.697 195.769H139.697C139.697 189.564 134.678 184.51 128.5 184.51V185.51ZM138.697 195.769C138.697 200.778 135.109 205.015 130.135 205.894L130.309 206.879C135.754 205.917 139.697 201.27 139.697 195.769H138.697ZM110.235 223.294C111.486 216.132 117.668 210.849 125.037 210.849V209.849C117.178 209.849 110.583 215.486 109.25 223.122L110.235 223.294ZM125.037 210.849H126.423V209.849H125.037V210.849ZM126.923 210.349V210.324H125.923V210.349H126.923ZM126.42 210.824L130.546 210.849L130.552 209.849L126.426 209.824L126.42 210.824ZM130.642 210.84L130.67 210.835L130.483 209.852L130.455 209.857L130.642 210.84ZM130.076 210.343V210.349H131.076V210.343H130.076ZM130.576 210.849H131.962V209.849H130.576V210.849ZM131.962 210.849C139.33 210.849 145.512 216.131 146.764 223.294L147.749 223.122C146.414 215.484 139.82 209.849 131.962 209.849V210.849ZM146.953 222.81C141.823 226.715 135.429 229.038 128.5 229.038V230.038C135.656 230.038 142.261 227.638 147.559 223.605L146.953 222.81ZM128.5 229.038C121.57 229.038 115.176 226.715 110.046 222.81L109.44 223.605C114.738 227.638 121.343 230.038 128.5 230.038V229.038ZM128.5 163C108.924 163 93 178.925 93 198.5H94C94 179.477 109.476 164 128.5 164V163ZM93 198.5C93 218.075 108.924 234 128.5 234V233C109.476 233 94 217.523 94 198.5H93ZM128.5 234C148.075 234 164 218.075 164 198.5H163C163 217.523 147.523 233 128.5 233V234ZM164 198.5C164 178.925 148.075 163 128.5 163V164C147.523 164 163 179.477 163 198.5H164Z" fill="white"></path></mask><g mask="url(#mask0_42_147)"><rect x="-71.5" y="-1.46301" width="400" height="400" rx="20" fill="#555551"></rect></g><g clip-path="url(#clip0_42_147)"><mask id="mask1_42_147" style="mask-type:alpha" maskUnits="userSpaceOnUse" x="191" y="269" width="20" height="19"><path d="M201.027 269C200.788 269 200.55 269.089 200.371 269.248C200.193 269.407 200.074 269.625 200.044 269.853L198.386 274.96C198.316 275.158 198.197 275.327 198.028 275.446C197.859 275.565 197.661 275.634 197.452 275.634H191.982C191.773 275.634 191.575 275.704 191.406 275.823C191.237 275.942 191.118 276.11 191.048 276.308C190.989 276.507 190.979 276.715 191.048 276.903C191.108 277.102 191.237 277.27 191.396 277.389L195.824 280.543C195.993 280.662 196.112 280.83 196.172 281.029C196.231 281.217 196.231 281.425 196.172 281.624L194.514 286.731C194.454 286.929 194.464 287.137 194.523 287.326C194.593 287.514 194.712 287.683 194.881 287.802C195.05 287.921 195.248 287.98 195.457 287.99C195.665 287.99 195.864 287.931 196.023 287.812L200.431 284.658C200.6 284.539 200.798 284.47 201.007 284.47C201.215 284.47 201.414 284.529 201.583 284.658L205.991 287.812C206.16 287.931 206.358 288 206.567 288C206.775 288 206.974 287.941 207.143 287.812C207.312 287.693 207.431 287.524 207.5 287.326C207.56 287.127 207.56 286.919 207.5 286.731L205.842 281.624C205.773 281.435 205.773 281.227 205.842 281.029C205.902 280.83 206.031 280.662 206.2 280.543L210.608 277.389C210.777 277.27 210.896 277.092 210.955 276.903C211.015 276.705 211.015 276.497 210.955 276.308C210.896 276.11 210.767 275.942 210.598 275.823C210.429 275.704 210.23 275.634 210.022 275.634H204.571C204.363 275.634 204.164 275.565 203.995 275.446C203.827 275.327 203.707 275.158 203.638 274.97L202.01 269.853C201.98 269.615 201.861 269.397 201.682 269.248C201.503 269.089 201.265 269 201.027 269Z" fill="#16A761"></path></mask><g mask="url(#mask1_42_147)"><rect x="172.429" y="249.857" width="57.1429" height="57.1429" rx="20" fill="#108389"></rect></g></g><g clip-path="url(#clip1_42_147)"><mask id="mask2_42_147" style="mask-type:alpha" maskUnits="userSpaceOnUse" x="217" y="269" width="20" height="19"><path d="M227.027 269C226.788 269 226.55 269.089 226.371 269.248C226.193 269.407 226.074 269.625 226.044 269.853L224.386 274.96C224.316 275.158 224.197 275.327 224.028 275.446C223.859 275.565 223.661 275.634 223.452 275.634H217.982C217.773 275.634 217.575 275.704 217.406 275.823C217.237 275.942 217.118 276.11 217.048 276.308C216.989 276.507 216.979 276.715 217.048 276.903C217.108 277.102 217.237 277.27 217.396 277.389L221.824 280.543C221.993 280.662 222.112 280.83 222.172 281.029C222.231 281.217 222.231 281.425 222.172 281.624L220.514 286.731C220.454 286.929 220.464 287.137 220.523 287.326C220.593 287.514 220.712 287.683 220.881 287.802C221.05 287.921 221.248 287.98 221.457 287.99C221.665 287.99 221.864 287.931 222.023 287.812L226.431 284.658C226.6 284.539 226.798 284.47 227.007 284.47C227.215 284.47 227.414 284.529 227.583 284.658L231.991 287.812C232.16 287.931 232.358 288 232.567 288C232.775 288 232.974 287.941 233.143 287.812C233.312 287.693 233.431 287.524 233.5 287.326C233.56 287.127 233.56 286.919 233.5 286.731L231.842 281.624C231.773 281.435 231.773 281.227 231.842 281.029C231.902 280.83 232.031 280.662 232.2 280.543L236.608 277.389C236.777 277.27 236.896 277.092 236.955 276.903C237.015 276.705 237.015 276.497 236.955 276.308C236.896 276.11 236.767 275.942 236.598 275.823C236.429 275.704 236.23 275.634 236.022 275.634H230.571C230.363 275.634 230.164 275.565 229.995 275.446C229.827 275.327 229.707 275.158 229.638 274.97L228.01 269.853C227.98 269.615 227.861 269.397 227.682 269.248C227.503 269.089 227.265 269 227.027 269Z" fill="#16A761"></path></mask><g mask="url(#mask2_42_147)"><rect x="198.429" y="249.857" width="57.1429" height="57.1429" rx="20" fill="#108389"></rect></g></g><g clip-path="url(#clip2_42_147)"><mask id="mask3_42_147" style="mask-type:alpha" maskUnits="userSpaceOnUse" x="243" y="269" width="20" height="19"><path d="M253.027 269C252.788 269 252.55 269.089 252.371 269.248C252.193 269.407 252.074 269.625 252.044 269.853L250.386 274.96C250.316 275.158 250.197 275.327 250.028 275.446C249.859 275.565 249.661 275.634 249.452 275.634H243.982C243.773 275.634 243.575 275.704 243.406 275.823C243.237 275.942 243.118 276.11 243.048 276.308C242.989 276.507 242.979 276.715 243.048 276.903C243.108 277.102 243.237 277.27 243.396 277.389L247.824 280.543C247.993 280.662 248.112 280.83 248.172 281.029C248.231 281.217 248.231 281.425 248.172 281.624L246.514 286.731C246.454 286.929 246.464 287.137 246.523 287.326C246.593 287.514 246.712 287.683 246.881 287.802C247.05 287.921 247.248 287.98 247.457 287.99C247.665 287.99 247.864 287.931 248.023 287.812L252.431 284.658C252.6 284.539 252.798 284.47 253.007 284.47C253.215 284.47 253.414 284.529 253.583 284.658L257.991 287.812C258.16 287.931 258.358 288 258.567 288C258.775 288 258.974 287.941 259.143 287.812C259.312 287.693 259.431 287.524 259.5 287.326C259.56 287.127 259.56 286.919 259.5 286.731L257.842 281.624C257.773 281.435 257.773 281.227 257.842 281.029C257.902 280.83 258.031 280.662 258.2 280.543L262.608 277.389C262.777 277.27 262.896 277.092 262.955 276.903C263.015 276.705 263.015 276.497 262.955 276.308C262.896 276.11 262.767 275.942 262.598 275.823C262.429 275.704 262.23 275.634 262.022 275.634H256.571C256.363 275.634 256.164 275.565 255.995 275.446C255.827 275.327 255.707 275.158 255.638 274.97L254.01 269.853C253.98 269.615 253.861 269.397 253.682 269.248C253.503 269.089 253.265 269 253.027 269Z" fill="#16A761"></path></mask><g mask="url(#mask3_42_147)"><rect x="224.429" y="249.857" width="57.1429" height="57.1429" rx="20" fill="#108389"></rect></g></g><g clip-path="url(#clip3_42_147)"><mask id="mask4_42_147" style="mask-type:alpha" maskUnits="userSpaceOnUse" x="269" y="269" width="20" height="19"><path d="M279.027 269C278.788 269 278.55 269.089 278.371 269.248C278.193 269.407 278.074 269.625 278.044 269.853L276.386 274.96C276.316 275.158 276.197 275.327 276.028 275.446C275.859 275.565 275.661 275.634 275.452 275.634H269.982C269.773 275.634 269.575 275.704 269.406 275.823C269.237 275.942 269.118 276.11 269.048 276.308C268.989 276.507 268.979 276.715 269.048 276.903C269.108 277.102 269.237 277.27 269.396 277.389L273.824 280.543C273.993 280.662 274.112 280.83 274.172 281.029C274.231 281.217 274.231 281.425 274.172 281.624L272.514 286.731C272.454 286.929 272.464 287.137 272.523 287.326C272.593 287.514 272.712 287.683 272.881 287.802C273.05 287.921 273.248 287.98 273.457 287.99C273.665 287.99 273.864 287.931 274.023 287.812L278.431 284.658C278.6 284.539 278.798 284.47 279.007 284.47C279.215 284.47 279.414 284.529 279.583 284.658L283.991 287.812C284.16 287.931 284.358 288 284.567 288C284.775 288 284.974 287.941 285.143 287.812C285.312 287.693 285.431 287.524 285.5 287.326C285.56 287.127 285.56 286.919 285.5 286.731L283.842 281.624C283.773 281.435 283.773 281.227 283.842 281.029C283.902 280.83 284.031 280.662 284.2 280.543L288.608 277.389C288.777 277.27 288.896 277.092 288.955 276.903C289.015 276.705 289.015 276.497 288.955 276.308C288.896 276.11 288.767 275.942 288.598 275.823C288.429 275.704 288.23 275.634 288.022 275.634H282.571C282.363 275.634 282.164 275.565 281.995 275.446C281.827 275.327 281.707 275.158 281.638 274.97L280.01 269.853C279.98 269.615 279.861 269.397 279.682 269.248C279.503 269.089 279.265 269 279.027 269Z" fill="#16A761"></path></mask><g mask="url(#mask4_42_147)"><rect x="250.429" y="249.857" width="57.1429" height="57.1429" rx="20" fill="#108389"></rect></g></g><g clip-path="url(#clip4_42_147)"><mask id="mask5_42_147" style="mask-type:alpha" maskUnits="userSpaceOnUse" x="295" y="269" width="20" height="19"><path d="M305.027 269C304.788 269 304.55 269.089 304.371 269.248C304.193 269.407 304.074 269.625 304.044 269.853L302.386 274.96C302.316 275.158 302.197 275.327 302.028 275.446C301.859 275.565 301.661 275.634 301.452 275.634H295.982C295.773 275.634 295.575 275.704 295.406 275.823C295.237 275.942 295.118 276.11 295.048 276.308C294.989 276.507 294.979 276.715 295.048 276.903C295.108 277.102 295.237 277.27 295.396 277.389L299.824 280.543C299.993 280.662 300.112 280.83 300.172 281.029C300.231 281.217 300.231 281.425 300.172 281.624L298.514 286.731C298.454 286.929 298.464 287.137 298.523 287.326C298.593 287.514 298.712 287.683 298.881 287.802C299.05 287.921 299.248 287.98 299.457 287.99C299.665 287.99 299.864 287.931 300.023 287.812L304.431 284.658C304.6 284.539 304.798 284.47 305.007 284.47C305.215 284.47 305.414 284.529 305.583 284.658L309.991 287.812C310.16 287.931 310.358 288 310.567 288C310.775 288 310.974 287.941 311.143 287.812C311.312 287.693 311.431 287.524 311.5 287.326C311.56 287.127 311.56 286.919 311.5 286.731L309.842 281.624C309.773 281.435 309.773 281.227 309.842 281.029C309.902 280.83 310.031 280.662 310.2 280.543L314.608 277.389C314.777 277.27 314.896 277.092 314.955 276.903C315.015 276.705 315.015 276.497 314.955 276.308C314.896 276.11 314.767 275.942 314.598 275.823C314.429 275.704 314.23 275.634 314.022 275.634H308.571C308.363 275.634 308.164 275.565 307.995 275.446C307.827 275.327 307.707 275.158 307.638 274.97L306.01 269.853C305.98 269.615 305.861 269.397 305.682 269.248C305.503 269.089 305.265 269 305.027 269Z" fill="#16A761"></path></mask><g mask="url(#mask5_42_147)"><rect x="276.429" y="249.857" width="57.1429" height="57.1429" rx="20" fill="#108389"></rect></g></g><defs><filter id="filter0_d_42_147" x="13" y="20" width="464" height="370" filterUnits="userSpaceOnUse" color-interpolation-filters="sRGB"><feFlood flood-opacity="0" result="BackgroundImageFix"></feFlood><feColorMatrix in="SourceAlpha" type="matrix" values="0 0 0 0 0 0 0 0 0 0 0 0 0 0 0 0 0 0 127 0" result="hardAlpha"></feColorMatrix><feOffset></feOffset><feGaussianBlur stdDeviation="20"></feGaussianBlur><feComposite in2="hardAlpha" operator="out"></feComposite><feColorMatrix type="matrix" values="0 0 0 0 0 0 0 0 0 0 0 0 0 0 0 0 0 0 0.15 0"></feColorMatrix><feBlend mode="normal" in2="BackgroundImageFix" result="effect1_dropShadow_42_147"></feBlend><feBlend mode="normal" in="SourceGraphic" in2="effect1_dropShadow_42_147" result="shape"></feBlend></filter><clipPath id="clip0_42_147"><rect width="20" height="19" fill="white" transform="translate(191 269)"></rect></clipPath><clipPath id="clip1_42_147"><rect width="20" height="19" fill="white" transform="translate(217 269)"></rect></clipPath><clipPath id="clip2_42_147"><rect width="20" height="19" fill="white" transform="translate(243 269)"></rect></clipPath><clipPath id="clip3_42_147"><rect width="20" height="19" fill="white" transform="translate(269 269)"></rect></clipPath><clipPath id="clip4_42_147"><rect width="20" height="19" fill="white" transform="translate(295 269)"></rect></clipPath></defs></svg> 